<?xml version="1.0" standalone="no"?><!DOCTYPE svg PUBLIC "-//W3C//DTD SVG 1.1//EN" "http://www.w3.org/Graphics/SVG/1.1/DTD/svg11.dtd"><svg t="1766747260313" class="icon" viewBox="0 0 1024 1024" version="1.1" xmlns="http://www.w3.org/2000/svg" p-id="5036" width="256" height="256" xmlns:xlink="http://www.w3.org/1999/xlink"><path d="M758.483456 972.8c-112.64 0-250.88-48.64-381.44-143.36h-2.56l-2.56-2.56c-40.96-30.72-81.92-66.56-120.32-102.4C80.083456 547.84-19.756544 330.24 3.283456 166.4 8.403456 128 31.443456 97.28 67.283456 81.92c33.28-15.36 74.24-12.8 104.96 7.68 102.4 64 197.12 61.44 289.28-2.56 5.12-2.56 10.24-7.68 15.36-12.8 38.4-30.72 89.6-33.28 130.56-7.68 58.88 38.4 112.64 81.92 163.84 133.12 184.32 184.32 279.04 409.6 245.76 576-10.24 48.64-33.28 92.16-64 122.88-48.64 51.2-115.2 74.24-194.56 74.24z m-353.28-186.88c199.68 145.92 409.6 179.2 509.44 79.36 25.6-25.6 43.52-58.88 51.2-97.28 30.72-148.48-61.44-360.96-230.4-529.92-48.64-48.64-99.84-89.6-156.16-128-20.48-12.8-48.64-12.8-69.12 5.12-5.12 5.12-12.8 10.24-17.92 12.8-110.08 76.8-225.28 79.36-345.6 5.12-17.92-10.24-38.4-12.8-58.88-2.56-17.92 7.68-30.72 23.04-33.28 43.52-20.48 148.48 71.68 348.16 232.96 509.44 35.84 35.84 74.24 69.12 112.64 97.28h2.56l2.56 5.12z" p-id="5037" fill="#2c2c2c"></path><path d="M310.483456 276.48c-74.24 0-145.92-23.04-204.8-69.12l15.36-20.48C174.803456 230.4 241.363456 250.88 310.483456 250.88c79.36 0 153.6-30.72 212.48-81.92l15.36 15.36c-61.44 58.88-143.36 92.16-227.84 92.16z" p-id="5038" fill="#2c2c2c"></path></svg>